HIERARCHY
ROOT Hips
{
	OFFSET 0.00 0.00 0.00
	CHANNELS 6 Xposition Yposition Zposition Xrotation Yrotation Zrotation
	JOINT LeftUpLeg
	{
		OFFSET 3.64953 0.00000 0.00000
		CHANNELS 3 Xrotation Yrotation Zrotation
		JOINT LeftLeg
		{
			OFFSET 0.00000 -15.70580 0.00000
			CHANNELS 3 Xrotation Yrotation Zrotation
			JOINT LeftFoot
			{
				OFFSET 0.00000 -15.41867 0.00000
				CHANNELS 3 Xrotation Yrotation Zrotation
				JOINT LeftToeBase
				{
					OFFSET 0.00000 -1.53543 5.73033
					CHANNELS 3 Xrotation Yrotation Zrotation
					End Site
					{
						OFFSET 0.00000 0.00000 2.95275
					}
				}
			}
		}
	}
	JOINT RightUpLeg
	{
		OFFSET -3.64953 0.00000 0.00000
		CHANNELS 3 Xrotation Yrotation Zrotation
		JOINT RightLeg
		{
			OFFSET 0.00000 -15.70580 0.00000
			CHANNELS 3 Xrotation Yrotation Zrotation
			JOINT RightFoot
			{
				OFFSET 0.00000 -15.41867 0.00000
				CHANNELS 3 Xrotation Yrotation Zrotation
				JOINT RightToeBase
				{
					OFFSET 0.00000 -1.53543 5.73033
					CHANNELS 3 Xrotation Yrotation Zrotation
					End Site
					{
						OFFSET 0.00000 0.00000 2.95275
					}
				}
			}
		}
	}
	JOINT Spine
	{
		OFFSET 0.00000 0.03937 0.00000
		CHANNELS 3 Xrotation Yrotation Zrotation
		JOINT Spine1
		{
			OFFSET 0.00000 10.24829 0.00000
			CHANNELS 3 Xrotation Yrotation Zrotation
			JOINT Neck
			{
				OFFSET 0.00000 7.82687 0.00000
				CHANNELS 3 Xrotation Yrotation Zrotation
				JOINT Head
				{
					OFFSET 0.00000 6.90715 0.00000
					CHANNELS 3 Xrotation Yrotation Zrotation
					End Site
					{
						OFFSET 0.00000 4.52755 0.00000
					}
				}
			}
			JOINT LeftShoulder
			{
				OFFSET 0.00000 7.82687 0.00000
				CHANNELS 3 Xrotation Yrotation Zrotation
				JOINT LeftArm
				{
					OFFSET 6.71018 -0.00002 0.00000
					CHANNELS 3 Xrotation Yrotation Zrotation
					JOINT LeftForeArm
					{
						OFFSET 10.94419 -0.00004 0.00000
						CHANNELS 3 Xrotation Yrotation Zrotation
						JOINT LeftHand
						{
							OFFSET 8.52010 -0.00003 0.00000
							CHANNELS 3 Xrotation Yrotation Zrotation
							JOINT LeftHandThumb
							{
								OFFSET 0.00000 0.00000 0.00000
								CHANNELS 3 Xrotation Yrotation Zrotation
								End Site
								{
									OFFSET 0.00000 0.00000 3.93700
								}
							}
							JOINT L_Wrist_End
							{
								OFFSET 3.93700 -0.00001 0.00000
								CHANNELS 3 Xrotation Yrotation Zrotation
							}
						}
					}
				}
			}
			JOINT RightShoulder
			{
				OFFSET 0.00000 7.82687 0.00000
				CHANNELS 3 Xrotation Yrotation Zrotation
				JOINT RightArm
				{
					OFFSET -6.71018 -0.00002 0.00000
					CHANNELS 3 Xrotation Yrotation Zrotation
					JOINT RightForeArm
					{
						OFFSET -10.94419 -0.00004 0.00000
						CHANNELS 3 Xrotation Yrotation Zrotation
						JOINT RightHand
						{
							OFFSET -8.52010 -0.00003 0.00000
							CHANNELS 3 Xrotation Yrotation Zrotation
							JOINT RightHandThumb
							{
								OFFSET 0.00000 0.00000 0.00000
								CHANNELS 3 Xrotation Yrotation Zrotation
								End Site
								{
									OFFSET 0.00000 0.00000 3.93700
								}
							}
							JOINT R_Wrist_End
							{
								OFFSET -5.39369 -0.00002 0.00000
								CHANNELS 3 Xrotation Yrotation Zrotation
							}
						}
					}
				}
			}
		}
	}
}
MOTION
Frames: 19
Frame Time: 0.008333
 106.1351 32.9559 5.7954 173.7222 14.1810 176.9299 2.1711 -2.6718 -2.4428 29.5714 -0.0000 0.0000 -10.6360 -9.1265 1.3209 -12.0636 -0.0000 -0.0000 -23.7326 0.2695 -0.5507 47.0596 -0.0000 0.0000 -24.1804 -2.6136 -6.1875 1.3915 -0.0000 0.0000 -3.8995 0.4706 -0.0818 9.8745 -1.6477 -0.4113 -0.5182 7.2383 -7.2515 -0.1899 8.1788 1.9115 18.6167 13.1212 -3.3105 -19.5783 -43.9063 -73.4556 -0.0004 -61.5018 -0.0002 -0.8771 -0.8223 -8.9993 0.0000 0.0000 0.0000 0.0000 0.0000 0.0000 15.3224 -21.3576 2.3631 10.7343 30.0468 64.8879 -0.0003 55.8115 0.0002 -30.6193 7.8090 2.0553 0.0000 -0.0000 0.0000 0.0000 -0.0000 0.0000
 106.2950 33.1228 5.3054 173.6378 13.8840 176.7720 2.8310 -2.3388 -1.9521 29.2250 -0.0000 0.0000 -8.3418 -9.7041 1.2172 -13.7034 0.0000 -0.0000 -23.5851 0.2720 -0.1884 43.7698 -0.0000 0.0000 -23.9883 -2.1383 -6.3473 1.5218 -0.0000 0.0000 -3.9545 0.3604 0.0695 9.7613 -1.7568 -0.3457 -0.5561 7.3771 -7.3405 -0.0735 8.2120 2.1237 18.4546 13.0233 -3.1736 -19.5118 -44.6568 -73.7716 -0.0004 -63.3080 -0.0003 -1.0209 -0.3568 -9.5580 -0.0000 0.0000 -0.0000 -0.0000 0.0000 -0.0000 15.6104 -21.4703 2.1240 11.1687 29.4890 64.9540 -0.0003 55.8395 0.0002 -30.5194 7.7000 2.0659 0.0000 -0.0000 -0.0000 0.0000 -0.0000 -0.0000
 106.4622 33.2670 4.8186 173.5839 13.5870 176.5552 3.4164 -1.8751 -1.3556 29.0982 -0.0000 0.0000 -6.3009 -10.5246 0.8644 -14.5428 0.0000 -0.0000 -23.3755 0.1236 0.2232 40.5028 -0.0000 0.0000 -23.6784 -1.5893 -5.8623 0.9852 -0.0000 0.0000 -4.0071 0.2736 0.1973 9.6818 -1.8283 -0.2153 -0.5230 7.4648 -7.3442 -0.0858 8.1898 2.2557 18.2739 13.0714 -2.7817 -19.9654 -45.6140 -74.6622 -0.0004 -64.6118 -0.0003 -1.1686 -0.3185 -9.6418 0.0000 0.0000 -0.0000 0.0000 0.0000 -0.0000 15.6670 -21.4975 1.7453 11.7332 28.7966 65.1365 -0.0003 55.9445 0.0002 -30.2406 7.3365 2.2373 -0.0000 0.0000 -0.0000 -0.0000 0.0000 -0.0000
 106.6127 33.3839 4.3296 173.5059 13.3065 176.4492 3.8743 -1.6786 -0.9623 29.1822 -0.0000 0.0000 -4.7122 -10.9884 -0.0202 -14.9042 -0.0000 -0.0000 -23.2082 -0.2386 0.4429 37.3681 -0.0000 0.0000 -23.5200 -0.6072 -5.1657 0.6179 0.0000 -0.0000 -3.9955 0.2126 0.2608 9.5507 -1.8720 -0.1018 -0.8022 7.7025 -7.2765 0.3138 8.0452 2.3074 18.0169 13.1537 -2.4765 -20.2274 -46.5694 -75.4246 -0.0005 -66.1125 -0.0003 -1.5284 0.0172 -9.8334 -0.0000 -0.0000 -0.0000 -0.0000 -0.0000 -0.0000 15.6894 -21.2477 1.5789 12.6726 27.7669 64.9742 -0.0003 56.4601 0.0002 -30.0040 7.1538 2.1103 -0.0000 -0.0000 -0.0000 -0.0000 -0.0000 -0.0000
 106.7977 33.4808 3.8316 173.5486 13.0062 176.1320 4.4119 -1.2995 -0.2594 29.4093 -0.0000 0.0000 -3.4416 -11.5934 -1.3063 -15.1757 0.0000 0.0000 -22.7874 -0.5888 0.9730 34.2033 -0.0000 0.0000 -23.3331 0.0539 -4.7511 -0.1029 -0.0000 -0.0000 -4.1199 0.0760 0.4000 9.8260 -1.9838 0.0816 -1.1031 8.0420 -7.2920 0.4353 7.9280 2.4787 17.8155 13.3651 -2.2880 -20.6352 -47.5393 -76.0025 -0.0005 -67.6001 -0.0003 -1.9813 0.1199 -10.0395 -0.0000 0.0000 -0.0000 -0.0000 0.0000 -0.0000 15.3003 -21.1419 1.1203 13.4629 27.1356 65.0988 -0.0003 56.6688 0.0002 -29.6845 6.8566 2.2541 -0.0000 -0.0000 -0.0000 -0.0000 -0.0000 -0.0000
 106.9570 33.5499 3.3477 173.4557 12.7386 176.0896 4.6767 -1.4506 0.0497 29.9124 0.0000 0.0000 -2.7454 -11.7476 -3.4433 -12.3114 0.0000 -0.0000 -22.6058 -0.7561 1.2348 31.3917 -0.0000 0.0000 -23.3386 0.4646 -3.6795 -0.2212 0.0000 0.0000 -4.2435 0.0675 0.4022 9.9350 -1.9803 0.1425 -1.3638 8.1274 -7.2089 0.4722 7.8186 2.5763 17.6416 13.3530 -2.0013 -21.0297 -48.4276 -76.5884 -0.0006 -69.1109 -0.0004 -2.4853 0.0794 -10.1775 0.0000 0.0000 0.0000 0.0000 0.0000 0.0000 14.9509 -21.1908 0.8988 14.3552 26.5394 64.9707 -0.0003 57.0014 0.0002 -29.6915 6.4926 2.3627 -0.0000 0.0000 0.0000 -0.0000 0.0000 0.0000
 107.1361 33.5938 2.8404 173.5508 12.4356 175.7973 5.0623 -1.3923 0.6260 30.6315 -0.0000 0.0000 -1.7924 -12.1280 -4.9863 -11.5838 0.0000 -0.0000 -22.1041 -1.1308 1.7208 28.6520 -0.0000 0.0000 -23.1128 0.7704 -2.2698 -0.8102 -0.0000 -0.0000 -4.3190 -0.0515 0.4838 10.1374 -2.0526 0.3924 -1.5216 8.1972 -7.1683 0.4114 7.8622 2.5483 17.4457 13.4977 -1.8560 -21.3738 -49.1468 -77.1711 -0.0006 -70.5738 -0.0004 -2.8219 0.1122 -10.6790 0.0000 0.0000 -0.0000 0.0000 0.0000 -0.0000 15.0360 -21.0019 0.6741 14.7735 25.9579 64.9025 -0.0003 57.2849 0.0002 -29.4936 6.3711 2.3558 -0.0000 -0.0000 0.0000 -0.0000 -0.0000 0.0000
 107.3158 33.6117 2.3324 173.7439 12.0815 175.5670 5.4018 -1.4111 1.1298 31.6499 -0.0000 0.0000 -1.0968 -12.3931 -6.3931 -10.5589 -0.0000 0.0000 -21.5309 -1.5071 2.1029 26.1218 -0.0000 0.0000 -22.9974 1.1163 -1.3584 -1.3377 0.0000 0.0000 -4.2744 -0.0917 0.4935 10.2951 -2.0443 0.6231 -1.6359 8.1297 -7.1655 0.2482 7.8585 2.6396 17.2854 13.4649 -1.6729 -21.6786 -49.7654 -77.6563 -0.0006 -71.9928 -0.0005 -3.0866 -0.0452 -11.4531 -0.0000 -0.0000 -0.0000 -0.0000 -0.0000 -0.0000 15.1161 -21.0104 0.5664 15.2381 25.5520 64.7141 -0.0003 57.5415 0.0002 -29.5160 6.3707 2.1825 -0.0000 -0.0000 -0.0000 -0.0000 -0.0000 -0.0000
 107.4864 33.6007 1.8491 173.7125 11.7620 175.5315 5.3315 -1.6299 1.4406 33.0115 -0.0000 0.0000 -0.9292 -12.4481 -8.7935 -7.3072 0.0000 0.0000 -21.3719 -1.6178 2.3656 24.2816 -0.0000 0.0000 -23.4957 0.8581 -1.3609 -0.1845 0.0000 0.0000 -4.3565 -0.0600 0.4472 10.4329 -2.0003 0.6583 -1.8686 8.0924 -7.0302 0.0995 7.6867 2.7333 17.1389 13.4180 -1.4002 -22.0262 -50.3650 -78.0914 -0.0007 -73.3407 -0.0005 -3.4408 -0.4570 -12.1171 -0.0000 -0.0000 0.0000 -0.0000 -0.0000 0.0000 14.8289 -21.0516 0.5448 15.9953 25.1348 64.4328 -0.0003 57.8476 0.0002 -29.6710 6.1576 2.3003 -0.0000 0.0000 -0.0000 -0.0000 0.0000 -0.0000
 107.6713 33.5649 1.3417 173.8919 11.4264 175.2516 5.4300 -1.6654 2.0025 34.5614 -0.0000 0.0000 -0.4701 -12.6240 -10.1117 -5.0000 -0.0000 0.0000 -20.8939 -1.8453 2.8082 22.5209 -0.0000 0.0000 -23.6357 0.5519 -1.5361 -0.4471 -0.0000 -0.0000 -4.3946 -0.0949 0.5129 10.6865 -1.9986 0.8250 -1.9985 7.9941 -6.9118 -0.0821 7.6838 2.6957 16.8560 13.3581 -1.1371 -22.1429 -50.7171 -78.5220 -0.0008 -74.6786 -0.0006 -3.7962 -0.6390 -12.8711 -0.0000 0.0000 -0.0000 -0.0000 0.0000 -0.0000 14.9779 -20.9025 0.5345 16.2442 24.8082 64.2514 -0.0003 58.0510 0.0002 -29.6591 6.1410 2.0180 -0.0000 0.0000 -0.0000 -0.0000 0.0000 -0.0000
 107.8365 33.4999 0.8620 173.8748 11.0961 175.2561 5.1244 -1.9385 2.2325 36.4573 -0.0000 0.0000 -0.7189 -12.4865 -11.8894 -1.4540 -0.0000 0.0000 -20.8063 -1.8488 2.9815 21.2299 -0.0000 0.0000 -24.0006 0.0114 -1.9565 0.5115 0.0000 0.0000 -4.4321 -0.0661 0.4530 10.7341 -1.9627 0.8331 -2.1077 7.9024 -6.7899 -0.3629 7.5554 2.7474 16.7071 13.3158 -0.8925 -22.3609 -51.2808 -78.8622 -0.0008 -75.8507 -0.0007 -4.3360 -1.0055 -13.0987 -0.0000 0.0000 -0.0000 -0.0000 0.0000 -0.0000 14.8695 -20.8898 0.5788 16.7100 24.5728 63.9684 -0.0003 58.3872 0.0002 -29.8355 5.5997 1.6560 -0.0000 0.0000 0.0000 -0.0000 0.0000 0.0000
 108.0215 33.4082 0.3492 174.1124 10.7925 175.0165 5.1303 -1.9795 2.7206 38.3111 -0.0000 0.0000 -0.7378 -12.5319 -13.1552 0.2316 0.0000 -0.0000 -20.3597 -2.1728 3.3617 20.2556 -0.0000 0.0000 -24.0576 -0.6448 -1.8595 0.1466 0.0000 0.0000 -4.4709 -0.0492 0.5227 11.0699 -1.9365 0.8691 -2.2991 7.7684 -6.5968 -0.5503 7.5193 2.7424 16.8057 13.4526 -0.8319 -22.8249 -51.9142 -79.0504 -0.0009 -76.9969 -0.0007 -4.8710 -1.0164 -13.4444 -0.0000 0.0000 -0.0000 -0.0000 0.0000 -0.0000 14.9347 -20.7658 0.7077 16.8957 24.3782 63.6870 -0.0003 58.5712 0.0002 -29.7651 5.5079 1.6291 -0.0000 0.0000 0.0000 -0.0000 0.0000 0.0000
 108.2029 33.2907 -0.1700 174.5288 10.5096 174.8914 5.2488 -1.9990 3.0420 40.2739 -0.0000 0.0000 -0.8432 -12.4349 -14.0078 2.3762 -0.0000 0.0000 -19.7697 -2.6411 3.5642 19.5698 -0.0000 0.0000 -24.0448 -1.1421 -1.5264 -0.0356 -0.0000 -0.0000 -4.3190 0.0147 0.4804 11.2913 -1.8625 0.8799 -2.3857 7.5289 -6.4299 -0.7376 7.5638 2.7140 16.8545 13.4071 -0.7184 -22.9660 -52.3310 -79.1075 -0.0010 -78.1329 -0.0008 -5.3034 -1.0713 -13.7519 -0.0000 -0.0000 0.0000 -0.0000 -0.0000 0.0000 15.0967 -20.7070 0.8634 16.9343 24.2673 63.4503 -0.0003 58.6790 0.0002 -29.6478 5.4947 1.5231 0.0000 -0.0000 0.0000 0.0000 -0.0000 0.0000
 108.3704 33.1429 -0.6539 174.5414 10.3178 174.9285 4.7487 -2.0067 3.2408 42.5702 -0.0000 0.0000 -1.3694 -12.0989 -14.7209 5.9696 0.0000 -0.0000 -19.7837 -3.1722 3.6336 19.3239 -0.0000 0.0000 -23.7730 -1.5748 -0.2980 0.5103 0.0000 0.0000 -4.3568 0.0814 0.4174 11.2737 -1.7961 0.8537 -2.4103 7.4433 -6.3536 -0.9749 7.5030 2.6825 16.9247 13.3470 -0.6386 -22.9013 -52.6535 -79.0212 -0.0011 -79.2282 -0.0009 -5.6716 -1.2019 -13.7003 0.0000 0.0000 -0.0000 0.0000 0.0000 -0.0000 15.0003 -20.6277 0.8759 17.1167 24.2898 63.2319 -0.0003 58.7988 0.0002 -29.6571 5.3856 1.3689 0.0000 -0.0000 -0.0000 0.0000 -0.0000 -0.0000
 108.5374 32.9726 -1.1373 174.5991 10.1027 174.8847 4.2216 -1.9386 3.5204 45.0317 -0.0000 0.0000 -2.1026 -11.5688 -14.6988 7.8042 -0.0000 -0.0000 -19.7794 -3.9277 3.7265 19.5477 -0.0000 0.0000 -23.0164 -2.1251 2.5762 0.4643 -0.0000 0.0000 -4.3759 0.1591 0.4035 11.3439 -1.7130 0.8551 -2.4100 7.2296 -6.3188 -1.4417 7.4235 2.7600 16.9705 13.2849 -0.6279 -22.7747 -52.8245 -78.8102 -0.0012 -80.3258 -0.0010 -6.0199 -1.0816 -14.2143 -0.0000 0.0000 -0.0000 -0.0000 0.0000 -0.0000 14.8740 -20.5735 1.0464 17.2712 24.2605 62.8700 -0.0004 59.0383 0.0002 -29.6485 5.2014 1.3189 0.0000 -0.0000 0.0000 0.0000 -0.0000 0.0000
 108.6959 32.7733 -1.6258 174.7269 9.7478 174.7464 3.6688 -1.9725 3.8668 47.7128 -0.0000 0.0000 -2.9498 -10.5932 -14.3057 7.8335 -0.0000 0.0000 -19.6771 -4.8306 3.7565 20.1325 0.0000 0.0000 -21.7279 -1.8118 5.5083 -0.2213 0.0000 0.0000 -4.3126 0.1536 0.5298 11.3242 -1.7311 0.8285 -2.3445 6.9851 -6.3373 -1.8064 7.4265 2.7867 17.1676 13.3439 -0.7654 -22.6305 -53.0868 -78.4328 -0.0014 -81.3419 -0.0012 -6.1524 -0.8581 -14.3969 0.0000 0.0000 -0.0000 0.0000 0.0000 -0.0000 15.0066 -20.5619 1.0993 16.9955 24.4773 62.7403 -0.0004 59.0684 0.0002 -29.3365 5.1185 1.1702 -0.0000 -0.0000 -0.0000 -0.0000 -0.0000 -0.0000
 108.8464 32.5496 -2.1069 174.7846 9.5902 174.7693 3.0221 -1.7496 4.0615 50.3592 -0.0000 0.0000 -3.9875 -9.2325 -13.8875 4.6974 -0.0000 0.0000 -19.9384 -5.2619 3.6446 22.0955 -0.0000 0.0000 -18.9026 -0.1034 6.1267 0.2029 0.0000 -0.0000 -4.2878 0.2354 0.5340 11.2186 -1.6573 0.7898 -2.2950 6.9157 -6.3494 -2.0307 7.4332 2.7176 17.3007 13.3297 -0.8579 -22.2971 -53.0538 -78.0732 -0.0016 -82.3027 -0.0014 -6.1930 -0.6790 -14.7742 -0.0000 0.0000 0.0000 -0.0000 0.0000 0.0000 14.9908 -20.3907 1.1312 16.9119 24.5431 62.5679 -0.0004 59.3301 0.0002 -29.3465 5.2258 0.8849 -0.0000 -0.0000 -0.0000 -0.0000 -0.0000 -0.0000
 108.9929 32.3125 -2.5782 174.8785 9.3983 174.7752 2.3367 -1.5841 4.2635 53.0665 -0.0000 0.0000 -5.1244 -7.6348 -13.5093 5.5767 -0.0000 0.0000 -20.7183 -6.0916 3.5251 25.7265 -0.0000 0.0000 -19.9205 3.2481 0.2216 7.5495 0.0000 0.0000 -4.2394 0.3244 0.5557 11.2403 -1.5728 0.7702 -2.3209 6.8292 -6.3899 -2.3264 7.3879 2.6069 17.3926 13.2835 -1.0310 -21.8742 -52.9255 -77.5846 -0.0018 -83.1698 -0.0016 -6.0564 -0.5269 -15.1046 -0.0000 0.0000 -0.0000 -0.0000 0.0000 -0.0000 14.6532 -20.2609 1.1611 16.9202 24.6207 62.3715 -0.0004 59.5370 0.0002 -29.0855 5.0347 1.0296 0.0000 0.0000 -0.0000 0.0000 0.0000 -0.0000
 109.1491 32.0663 -3.0439 175.0135 9.2602 174.7337 1.6398 -1.3520 4.5586 55.7544 -0.0000 0.0000 -6.2268 -6.0049 -12.9741 7.7074 -0.0000 0.0000 -21.7142 -6.0296 3.5736 30.0101 -0.0000 0.0000 -22.8429 3.8434 -0.0572 4.5503 -0.0000 0.0000 -4.0916 0.4328 0.5704 11.1239 -1.4622 0.7788 -2.1979 6.6572 -6.4009 -2.7198 7.4236 2.4126 17.5579 13.2664 -1.2506 -21.3884 -52.6473 -77.0504 -0.0020 -83.8794 -0.0018 -5.9087 -0.3456 -15.4828 0.0000 0.0000 -0.0000 0.0000 0.0000 -0.0000 14.4590 -20.0938 1.2994 16.7454 24.8000 62.1373 -0.0004 59.8988 0.0002 -29.2276 4.3300 0.6009 -0.0000 0.0000 -0.0000 -0.0000 0.0000 -0.0000
